<svg xmlns="http://www.w3.org/2000/svg" viewBox="0 0 32 32">
  <circle cx="16" cy="16" r="16" fill="#F7931A"/>
  <path fill="#ffffff" d="M22.1 14.3c.3-2.1-1.3-3.2-3.5-4l.7-2.8-1.8-.4-.7 2.7c-.5-.1-.9-.2-1.4-.4l.7-2.7-1.8-.4-.7 2.8c-.4-.1-.7-.2-1.1-.3l-2.4-.6-.5 1.9s1.3.3 1.3.3c.7.2.8.7.8 1l-.9 3.4.2.1-.2-.1-1.2 4.7c-.1.2-.3.5-.8.4 0 0-1.3-.3-1.3-.3l-.9 2h2.3c.4.1.9.2 1.3.3l-.7 2.8 1.8.4.7-2.8c.5.1 1 .3 1.5.4l-.7 2.8 1.8.4.7-2.8c3 .6 5.2.3 6.1-2.3.8-2.1 0-3.3-1.6-4.1 1.1-.3 1.9-1 2.1-2.4zm-3.8 5.3c-.5 2.1-4.1 1-5.2.7l.9-3.6c1.1.3 4.9.8 4.3 2.9zm.5-5.3c-.5 1.9-3.5 1-4.5.7l.8-3.3c1 .3 4.2.7 3.7 2.6z"/>
</svg>
